<svg width="24" height="25" viewBox="0 0 24 25" fill="none" xmlns="http://www.w3.org/2000/svg">
<path d="M9.5493 13.3824C6.72729 9.71942 3.91203 6.06478 1.07246 2.37866C1.16518 2.37036 1.22594 2.3603 1.28715 2.3603C3.32512 2.35943 5.36309 2.3603 7.40106 2.35681C7.54914 2.35681 7.64321 2.39746 7.73502 2.51723C9.48944 4.80242 11.2488 7.08367 13.0077 9.36536C13.0568 9.42874 13.1081 9.49081 13.2134 9.62238C13.253 9.54851 13.2728 9.4812 13.3165 9.43486C15.5079 7.13306 17.7025 4.83389 19.8931 2.53121C20.0088 2.4097 20.1231 2.352 20.2977 2.35637C20.7694 2.36817 21.2415 2.35987 21.7137 2.36074C21.7848 2.36074 21.8563 2.36817 21.9765 2.37517C19.3134 5.16871 16.6813 7.92947 14.0375 10.7025C17.0234 14.5783 19.9993 18.4419 23 22.3374C22.8911 22.343 22.8209 22.3496 22.7502 22.3496C20.7271 22.35 18.7044 22.3483 16.6813 22.3535C16.5238 22.3535 16.4243 22.3116 16.328 22.1857C14.4259 19.7082 12.5185 17.2346 10.6119 14.7601C10.5494 14.6793 10.4855 14.5993 10.4121 14.5062C9.99534 14.9415 9.58711 15.3664 9.18114 15.7926C7.16612 17.906 5.14976 20.0185 3.13969 22.1363C2.99026 22.2936 2.84174 22.3623 2.61984 22.3557C2.1045 22.34 1.58826 22.3509 1 22.3509C3.87287 19.3371 6.70614 16.3652 9.5493 13.3832V13.3824ZM3.90258 3.73238C3.97009 3.82679 4.0097 3.88537 4.05291 3.94132C4.95847 5.11713 5.86403 6.29295 6.77005 7.46876C10.2001 11.9211 13.6297 16.3744 17.0652 20.8228C17.1242 20.8988 17.257 20.96 17.356 20.9613C18.2246 20.9723 19.0937 20.9679 19.9624 20.967C20.0169 20.967 20.0713 20.957 20.1541 20.9491C19.7369 20.4071 19.3395 19.8896 18.9412 19.3725C16.3667 16.0321 13.7918 12.6922 11.2182 9.35138C9.81485 7.52952 8.41375 5.70591 7.00679 3.88712C6.95188 3.8163 6.84611 3.74025 6.7633 3.73937C5.82758 3.72888 4.89141 3.73282 3.90303 3.73282L3.90258 3.73238Z" fill="currentColor"/>
</svg>
