<svg width="24" height="25" viewBox="0 0 24 25" fill="none" xmlns="http://www.w3.org/2000/svg">
<g clip-path="url(#clip0_191_30460)">
<path d="M14.4998 10.6192C14.7453 10.8646 14.868 11.1715 14.868 11.5396C14.868 11.9078 14.7453 12.2301 14.4998 12.5061C14.285 12.7516 14.0089 12.8743 13.6714 12.8743C13.4566 12.8743 13.2571 12.813 13.0731 12.6902C12.8889 12.5675 12.7356 12.414 12.6129 12.2301C12.5208 12.0152 12.4748 11.7851 12.4748 11.5396C12.4748 11.3555 12.5054 11.1868 12.5668 11.0334C12.6282 10.8801 12.7049 10.7419 12.7969 10.6192C12.9197 10.4965 13.0577 10.4045 13.2112 10.3431C13.3645 10.2817 13.518 10.251 13.6714 10.251C14.0089 10.251 14.285 10.3737 14.4998 10.6192ZM8.51683 10.6192C8.76228 10.3737 9.05376 10.251 9.39126 10.251C9.72876 10.251 10.0049 10.3737 10.2197 10.6192C10.4651 10.8646 10.5879 11.1715 10.5879 11.5396C10.5879 11.9078 10.4651 12.2301 10.2197 12.5061C10.0049 12.7516 9.72876 12.8743 9.39126 12.8743C9.05376 12.8743 8.76228 12.7516 8.51683 12.5061C8.30206 12.2301 8.19467 11.9078 8.19467 11.5396C8.19467 11.1715 8.30206 10.8646 8.51683 10.6192ZM21.8174 2.79535V23.9198C20.0379 22.355 18.2123 20.6982 16.3407 18.9493L16.985 21.1584H3.5924C2.94808 21.1584 2.38046 20.9283 1.88956 20.4681C1.42933 19.9772 1.19922 19.3942 1.19922 18.7192V2.79535C1.19922 2.12035 1.42933 1.55273 1.88956 1.0925C2.38046 0.601595 2.94808 0.35614 3.5924 0.35614H19.4242C20.0686 0.35614 20.6208 0.601595 21.081 1.0925C21.5719 1.55273 21.8174 2.12035 21.8174 2.79535ZM18.4577 13.9328C18.4577 12.8283 18.3197 11.7084 18.0435 10.5731C17.7674 9.40728 17.4759 8.53284 17.1691 7.94989L16.7549 7.07546C16.448 6.83 16.1106 6.63057 15.7424 6.47717C15.4049 6.29308 15.098 6.17035 14.8219 6.10899C14.5765 6.01693 14.3464 5.95557 14.1316 5.92489C13.9168 5.86353 13.748 5.83284 13.6253 5.83284H13.4413L13.3032 6.01693C13.8862 6.20102 14.4231 6.43114 14.914 6.70728C15.4049 6.95273 15.7424 7.15217 15.9265 7.30557L16.2026 7.53569C14.8526 6.76864 13.3799 6.36978 11.7844 6.3391C10.189 6.30841 8.73161 6.58455 7.41228 7.1675L6.72195 7.53569C7.36626 6.92205 8.3941 6.40046 9.80546 5.97091L9.71343 5.83284C8.63955 5.83284 7.53501 6.24705 6.39979 7.07546C6.27706 7.32091 6.12365 7.64308 5.93955 8.04193C5.75546 8.4408 5.49467 9.25387 5.15717 10.4811C4.85035 11.6777 4.69695 12.8283 4.69695 13.9328C4.75831 14.0863 4.8657 14.255 5.0191 14.4391C5.20319 14.6231 5.60206 14.884 6.2157 15.2215C6.82934 15.559 7.51967 15.7277 8.28672 15.7277C8.59354 15.3902 8.85434 15.0681 9.0691 14.7613C8.63955 14.6386 8.2407 14.4698 7.87252 14.255C7.53501 14.0095 7.3049 13.7948 7.18217 13.6107L6.99808 13.3805C7.05945 13.4113 7.12081 13.4573 7.18217 13.5186C7.27422 13.5493 7.35092 13.5801 7.41228 13.6107C7.47365 13.6413 7.50434 13.6567 7.50434 13.6567C8.54752 14.2396 9.69808 14.5925 10.956 14.7152C12.2447 14.8073 13.5486 14.5925 14.868 14.071C15.3282 13.9175 15.7731 13.6874 16.2026 13.3805C15.8038 14.0249 15.098 14.5004 14.0856 14.8073L14.868 15.7277C15.3589 15.7277 15.8038 15.6664 16.2026 15.5437C16.6322 15.3902 16.9697 15.2368 17.2151 15.0834C17.4913 14.8993 17.7214 14.7305 17.9054 14.5772C18.1203 14.3931 18.2583 14.2396 18.3197 14.1169L18.4577 13.9328Z" fill="currentColor"/>
</g>
<defs>
<clipPath id="clip0_191_30460">
<rect width="21.6" height="24" fill="white" transform="translate(1.19922 0.35614)"/>
</clipPath>
</defs>
</svg>
