<svg width="800" height="800" viewBox="0 0 800 800" fill="none" xmlns="http://www.w3.org/2000/svg">
<g clip-path="url(#clip0_711_933)">
<g filter="url(#filter0_b_711_933)">
<circle cx="400" cy="400" r="400" fill="#F1F5F9"/>
</g>
<path d="M424.015 506.224C356.514 507.083 303.984 497.742 265.001 485.105C257.357 482.509 240.676 474.912 235.098 465.299C232.012 459.979 231.975 446.325 233.048 432.272C233.35 433.249 233.703 434.099 234.11 434.802C239.677 444.418 256.46 451.99 264.156 454.574C303.411 467.146 356.357 476.388 424.473 475.383C500.213 474.264 546.704 465.338 574.009 454.76C573.993 455.004 573.977 455.248 573.961 455.492C572.828 472.967 571.727 489.926 526.954 497.89C501.045 502.498 467.376 505.672 424.015 506.224Z" fill="#FF1100"/>
<path d="M424.015 530.859C356.514 531.718 303.984 522.377 265.001 509.74C257.357 507.143 240.676 499.547 235.098 489.934C232.012 484.614 231.975 470.96 233.048 456.907C233.35 457.884 233.703 458.733 234.11 459.437C239.677 469.052 256.46 476.624 264.156 479.208C303.411 491.78 356.357 501.023 424.473 500.017C500.213 498.899 546.704 489.973 574.009 479.395C573.993 479.639 573.977 479.883 573.961 480.126C572.828 497.601 571.727 514.561 526.954 522.524C501.045 527.132 467.376 530.307 424.015 530.859Z" fill="#FDBF41"/>
<path d="M590.082 505.733C590.709 521.539 555.175 553.62 408.014 555.494C340.513 556.353 287.983 547.011 249 534.375C241.356 531.778 224.675 524.182 219.097 514.569C216.011 509.249 215.974 495.595 217.047 481.542C217.349 482.519 217.702 483.368 218.109 484.071C223.675 493.687 240.459 501.259 248.155 503.843C287.41 516.415 340.355 525.658 408.471 524.652C525.756 522.92 572.904 502.468 587.281 486.147L590.082 505.733Z" fill="#F1ECE2"/>
<path d="M413.204 217.234C440.356 226.947 480.55 280.645 424.113 417.736C398.226 480.617 361.046 523.034 323.747 550.798C316.232 556.165 296.547 566.62 277.928 565.51C270.64 565.076 256.874 560.516 241.131 554.296C244.781 555.258 247.888 555.856 250.291 556.001C268.91 557.122 288.595 546.557 296.11 541.134C333.409 513.077 370.589 470.212 396.476 406.667C443.072 292.288 423.799 235.353 400.379 213.45L413.204 217.234Z" fill="#FF1100"/>
<path d="M436.478 218.794C463.63 228.787 503.825 284.032 447.387 425.071C421.5 489.764 384.32 533.403 347.022 561.967C339.506 567.488 319.821 578.244 301.202 577.102C293.914 576.655 280.147 571.965 264.403 565.565C268.054 566.555 271.162 567.17 273.566 567.319C292.184 568.473 311.869 557.603 319.385 552.024C356.683 523.159 393.863 479.059 419.75 413.683C466.346 296.01 447.073 237.435 423.654 214.902L436.478 218.794Z" fill="#FDBF41"/>
<path d="M456.843 231.836C483.995 241.829 524.19 297.074 467.752 438.113C441.865 502.806 404.685 546.445 367.387 575.009C359.871 580.53 340.186 591.286 321.567 590.144C314.279 589.697 300.512 585.006 284.768 578.607C288.419 579.596 291.527 580.212 293.931 580.361C312.549 581.515 332.234 570.645 339.75 565.066C377.048 536.2 414.228 492.101 440.115 426.725C486.711 309.052 467.438 250.477 444.019 227.943L456.843 231.836Z" fill="#F1ECE2"/>
<path d="M486.421 444.446C542.859 298.184 502.664 240.893 475.512 230.53L462.688 226.494C462.934 226.739 463.179 226.988 463.424 227.241C443.73 224.017 416.748 237.39 391.297 262.991C387.66 266.614 403.598 260.648 408.752 255.513C421.116 245.369 439.613 240.292 456.997 247.584C496.224 264.038 497.037 350.696 458.814 441.14C420.591 531.584 362.17 590.115 322.943 573.661C317.699 571.461 312.215 567.346 307.659 564.18C297.132 554.781 292.386 542.228 292.386 509.837L292.386 549.8C289.624 545.693 287.294 541.089 285.479 535.922C285.113 527.227 279.295 512.736 277.503 527.952C278.855 561.15 293.253 580.446 312.689 591.966L312.599 591.96C311.871 591.913 311.309 591.897 310.824 591.883C308.967 591.83 308.216 591.808 303.443 590.226C318.684 596.91 327.027 600.02 336.171 600.37C357.589 601.191 382.475 588.706 389.991 582.981C427.289 553.359 460.534 511.534 486.421 444.446Z" fill="#007FFF"/>
<path d="M408.806 370.329C476.306 369.47 528.836 378.812 567.82 391.448C575.463 394.045 592.145 401.641 597.722 411.254C600.809 416.574 600.845 430.229 599.773 444.281C599.471 443.304 599.118 442.455 598.711 441.752C593.144 432.136 576.36 424.564 568.664 421.98C529.409 409.408 476.464 400.165 408.348 401.171C332.607 402.289 286.116 411.215 258.812 421.794C258.828 421.55 258.844 421.306 258.859 421.062C259.993 403.587 261.093 386.627 305.867 378.664C331.775 374.056 365.445 370.881 408.806 370.329Z" fill="#FF1100"/>
<path d="M408.806 398.114C476.306 397.255 528.836 406.597 567.82 419.233C575.463 421.83 592.145 429.426 597.722 439.039C600.809 444.359 600.845 458.013 599.773 472.066C599.471 471.089 599.118 470.24 598.711 469.537C593.144 459.921 576.36 452.349 568.664 449.765C529.409 437.193 476.464 427.95 408.348 428.956C332.607 430.074 286.116 439 258.812 449.579C258.828 449.335 258.844 449.091 258.859 448.847C259.993 431.372 261.093 414.412 305.867 406.449C331.775 401.841 365.445 398.666 408.806 398.114Z" fill="#FDBF41"/>
<path opacity="0.48" d="M589.741 514.927C590.403 514.397 590.403 514.342 589.741 513.812C588.205 512.548 586.562 511.447 584.88 510.4C579.265 506.907 573.265 504.243 567.12 501.932C565.716 501.402 564.352 500.763 562.855 500.491C562.445 500.015 561.835 499.974 561.306 499.798C555.571 497.84 549.73 496.236 543.876 494.7C543.386 494.66 542.909 494.551 542.485 494.306C539.744 493.694 537.002 493.069 534.274 492.458C529.201 491.329 524.102 490.351 518.99 489.467C515.202 488.815 511.401 488.203 507.6 487.618C504.633 487.17 501.666 486.708 498.673 486.49C498.183 486.409 497.693 486.313 497.19 486.245C486.713 484.927 476.224 483.935 465.695 483.187C458.821 482.711 451.947 482.331 445.06 482.059C436.067 481.705 427.061 481.542 418.055 481.542C406.89 481.542 395.738 481.828 384.599 482.385C371.726 483.024 358.879 484.03 346.071 485.498C343.979 485.743 341.86 485.878 339.794 486.341C339.37 486.218 338.959 486.341 338.535 486.381C329.41 487.537 320.324 488.964 311.292 490.718C305.955 491.751 300.644 492.892 295.372 494.184L295.266 494.361C295.266 494.361 293.902 514.505 296.922 534.175C302.127 535.439 307.358 536.567 312.603 537.573C317.292 538.47 321.993 539.326 326.721 540.02C333.344 540.998 339.979 541.991 346.641 542.697C353.117 543.391 359.581 544.111 366.07 544.6C369.911 544.886 373.739 545.226 377.58 545.457C383.262 545.797 388.957 546.082 394.639 546.286C399.83 546.476 405.022 546.626 410.214 546.694C418.518 546.802 426.836 546.762 435.14 546.585C443.139 546.408 451.139 546.096 459.125 545.633C468.648 545.09 478.157 544.315 487.654 543.309C502.13 541.773 516.526 539.707 530.791 536.784C543.253 534.229 555.571 531.102 567.517 526.59C572.722 524.632 577.821 522.389 582.669 519.616C585.132 518.216 587.516 516.694 589.741 514.913V514.927Z" fill="url(#paint0_linear_711_933)"/>
<path d="M226.739 473.96C226.111 458.153 261.646 426.072 408.807 424.199C476.307 423.339 528.837 432.681 567.821 445.318C575.464 447.914 592.146 455.51 597.723 465.123C600.81 470.443 600.846 484.098 599.774 498.15C599.472 497.173 599.119 496.324 598.712 495.621C593.145 486.005 576.361 478.433 568.665 475.849C529.41 463.277 476.465 454.034 408.349 455.04C291.065 456.772 243.917 477.225 229.539 493.545L226.739 473.96Z" fill="#F1ECE2"/>
<path d="M226.739 502.943C226.111 487.136 261.646 455.055 408.807 453.182C476.307 452.322 528.837 461.664 567.821 474.301C575.464 476.897 592.146 484.493 597.723 494.107C600.504 498.899 600.809 510.457 600.058 522.976C594.094 513.683 576.206 507.362 568.669 504.831C529.414 492.259 476.469 483.017 408.353 484.022C291.06 485.754 243.914 506.21 229.54 522.531L226.739 502.943Z" fill="#007FFF"/>
<path d="M239.832 561.614C212.68 551.543 172.485 495.864 228.923 353.718C254.81 288.517 291.99 244.536 329.289 215.748C336.804 210.184 356.489 199.343 375.108 200.494C385.634 201.144 409.673 210.716 433.663 221.513C431.195 221.769 428.812 222.032 426.538 222.282C418.29 223.191 411.464 223.943 407.108 223.678C388.49 222.548 368.805 233.193 361.289 238.657C323.991 266.924 286.811 310.109 260.924 374.13C214.039 490.079 233.842 547.435 257.456 569.199L239.832 561.614Z" fill="#FF1100"/>
<path d="M263.106 572.781C235.954 562.601 195.759 506.318 252.197 362.628C278.084 296.719 315.264 252.26 352.562 223.16C360.078 217.535 379.763 206.577 398.381 207.74C406.509 208.248 422.693 214.132 440.69 221.812C433.97 219.558 428.379 218.125 424.564 217.885C405.945 216.713 386.26 227.75 378.745 233.415C341.446 262.724 304.266 307.501 278.379 373.882C221.942 518.6 263.441 573.453 290.593 583.707L313.866 591.677L263.106 572.781Z" fill="#FDBF41"/>
<path d="M284.922 582.499C257.77 572.21 217.575 515.322 274.013 370.089C299.9 303.472 337.08 258.536 374.379 229.122C381.894 223.437 401.579 212.361 420.198 213.537C428.61 214.068 445.653 220.421 464.404 228.582C458.064 226.558 452.787 225.279 449.139 225.044C430.521 223.843 410.985 233.794 403.47 239.6C366.171 269.638 328.992 315.529 303.105 383.562C254.915 510.206 288.312 572.296 312.409 593.126L284.922 582.499Z" fill="#F1ECE2"/>
<path d="M297.287 378.109C240.849 524.371 281.044 581.661 308.196 592.024L321.019 596.06C320.774 595.815 320.529 595.566 320.284 595.313C339.978 598.537 366.96 585.164 392.411 559.563C396.047 555.94 380.11 561.907 374.956 567.041C362.592 577.185 344.095 582.262 326.71 574.97C287.484 558.516 286.67 471.858 324.893 381.414C363.116 290.97 421.538 232.439 460.765 248.893C466.008 251.093 471.493 255.208 476.049 258.374C486.576 267.773 491.322 280.326 491.322 312.717V272.754C494.084 276.861 496.414 281.465 498.229 286.632C498.595 295.327 504.413 309.818 506.205 294.602C504.853 261.404 490.455 242.108 471.019 230.589L471.109 230.594C471.837 230.641 472.399 230.657 472.884 230.671C474.74 230.725 475.492 230.746 480.264 232.328C465.024 225.644 456.681 222.534 447.536 222.184C426.118 221.363 401.232 233.848 393.717 239.573C356.418 269.195 323.174 311.02 297.287 378.109Z" fill="#007FFF"/>
<path d="M420.561 545.816C534.388 542.554 581.873 522.568 597.492 506.29L598.979 519.929L599.691 519.22C600.158 520.77 600.325 524.272 599.615 527.501C597.627 541.399 556.266 577.428 396.051 577.428C390.201 577.428 384.628 577.361 379.323 577.23C391.26 566.599 401.44 556.152 410.168 546.035C413.593 545.989 417.057 545.916 420.561 545.816Z" fill="#007FFF"/>
</g>
<defs>
<filter id="filter0_b_711_933" x="-128" y="-128" width="1056" height="1056" filterUnits="userSpaceOnUse" color-interpolation-filters="sRGB">
<feFlood flood-opacity="0" result="BackgroundImageFix"/>
<feGaussianBlur in="BackgroundImageFix" stdDeviation="64"/>
<feComposite in2="SourceAlpha" operator="in" result="effect1_backgroundBlur_711_933"/>
<feBlend mode="normal" in="SourceGraphic" in2="effect1_backgroundBlur_711_933" result="shape"/>
</filter>
<linearGradient id="paint0_linear_711_933" x1="453.508" y1="474.297" x2="456.256" y2="535.168" gradientUnits="userSpaceOnUse">
<stop offset="0.16" stop-color="#191919"/>
<stop offset="0.97" stop-color="#191919" stop-opacity="0"/>
</linearGradient>
<clipPath id="clip0_711_933">
<rect width="800" height="800" fill="white"/>
</clipPath>
</defs>
</svg>
