<svg width="30" height="34" viewBox="0 0 30 34" fill="none" xmlns="http://www.w3.org/2000/svg">
<path d="M5 27.9286L12.6667 8.5M10.0269 30.9806L18.5 8.5M20.4743 30.6763L17.3333 21.8571M24.5602 28.1956L20 15.5M18.1139 32.1094L26.1139 27.2523C27.9058 26.1643 29 24.22 29 22.1236V11.8764C29 9.78005 27.9058 7.83568 26.1139 6.74771L18.1139 1.89056C16.2005 0.728864 13.7995 0.728861 11.8861 1.89056L3.88613 6.74771C2.09417 7.83568 1 9.78005 1 11.8764V22.1236C1 24.22 2.09417 26.1643 3.88613 27.2523L11.8861 32.1094C13.7995 33.2711 16.2005 33.2711 18.1139 32.1094Z" stroke="#FFC633" stroke-width="2" stroke-linecap="round"/>
</svg>
