<svg width="40" height="40" viewBox="0 0 40 40" fill="none" xmlns="http://www.w3.org/2000/svg">
<path d="M27.2 13.6H31.52C33.12 13.6 34.4 14.88 34.4 16.48V16.48C34.4 17.44 33.92 18.24 33.12 18.88L23.52 25.28C21.28 26.72 18.56 26.72 16.32 25.28L6.71998 18.72C6.07998 18.24 5.59998 17.44 5.59998 16.48V16.48C5.59998 14.88 6.87998 13.6 8.47998 13.6H12.8" stroke="#FFC633" stroke-width="2" stroke-linecap="round" stroke-linejoin="round"/>
<path d="M5.59998 16.16V31.2C5.59998 32.96 7.03998 34.4 8.79998 34.4H31.2C32.96 34.4 34.4 32.96 34.4 31.2V16.16" stroke="#FFC633" stroke-width="2" stroke-linecap="round" stroke-linejoin="round"/>
<path d="M15.3599 24.64L6.55994 33.44" stroke="#FFC633" stroke-width="2" stroke-linecap="round" stroke-linejoin="round"/>
<path d="M24.64 24.64L33.44 33.44" stroke="#FFC633" stroke-width="2" stroke-linecap="round" stroke-linejoin="round"/>
<path d="M20 20C16 20 12.8 16.8 12.8 12.8C12.8 8.79998 16 5.59998 20 5.59998C24 5.59998 27.2 8.79998 27.2 12.8C27.2 16.8 24 20 20 20" stroke="#FFC633" stroke-width="2" stroke-linecap="round" stroke-linejoin="round"/>
<path d="M18.7199 11.68L19.9999 10.4V15.2" stroke="#FFC633" stroke-width="2" stroke-linecap="round" stroke-linejoin="round"/>
<path d="M18.72 15.2H21.12" stroke="#FFC633" stroke-width="2" stroke-linecap="round" stroke-linejoin="round"/>
</svg>
