<svg width="40" height="40" viewBox="0 0 40 40" fill="none" xmlns="http://www.w3.org/2000/svg">
<path fill-rule="evenodd" clip-rule="evenodd" d="M19.9985 24.6144L23.2081 26.3008C23.8321 26.6288 24.5633 26.0992 24.4433 25.4032L23.8305 21.8304L26.4273 19.3024C26.9329 18.8096 26.6545 17.9504 25.9553 17.8496L22.3681 17.328L20.7633 14.0752C20.4513 13.4416 19.5489 13.4416 19.2353 14.0752L17.6321 17.328L14.0449 17.8496C13.3457 17.9504 13.0673 18.8096 13.5729 19.3024L16.1697 21.8304L15.5569 25.4032C15.4369 26.0992 16.1681 26.6288 16.7921 26.3008L20.0017 24.6144H19.9985V24.6144Z" stroke="#FFC633" stroke-width="2" stroke-linecap="round" stroke-linejoin="round"/>
<path d="M35.2001 20H33.4401" stroke="#FFC633" stroke-width="2" stroke-linecap="round" stroke-linejoin="round"/>
<path d="M6.56005 20H4.80005" stroke="#FFC633" stroke-width="2" stroke-linecap="round" stroke-linejoin="round"/>
<path d="M30.976 9.02399L29.296 10.704" stroke="#FFC633" stroke-width="2" stroke-linecap="round" stroke-linejoin="round"/>
<path d="M9.05603 31.024L10.752 29.328" stroke="#FFC633" stroke-width="2" stroke-linecap="round" stroke-linejoin="round"/>
<path d="M9.02405 9.05597L10.704 10.752" stroke="#FFC633" stroke-width="2" stroke-linecap="round" stroke-linejoin="round"/>
<path d="M31.024 30.976L29.328 29.296" stroke="#FFC633" stroke-width="2" stroke-linecap="round" stroke-linejoin="round"/>
<path d="M20.0001 33.504V35.2" stroke="#FFC633" stroke-width="2" stroke-linecap="round" stroke-linejoin="round"/>
<path d="M20.0001 4.79999V6.49599" stroke="#FFC633" stroke-width="2" stroke-linecap="round" stroke-linejoin="round"/>
</svg>
